<svg width="1600" height="420" viewBox="0 0 1600 420" fill="none" xmlns="http://www.w3.org/2000/svg">
  <rect width="1600" height="420" fill="#0B1020"/>
  <rect x="0" y="0" width="1600" height="420" fill="url(#grid)" opacity="0.22"/>
  <rect x="90" y="80" width="420" height="260" rx="14" fill="#111827" stroke="#334155" stroke-width="2"/>
  <rect x="130" y="122" width="140" height="18" rx="4" fill="#38BDF8"/>
  <rect x="130" y="164" width="300" height="14" rx="4" fill="#64748B"/>
  <rect x="130" y="198" width="240" height="14" rx="4" fill="#64748B"/>
  <rect x="130" y="232" width="310" height="14" rx="4" fill="#64748B"/>
  <rect x="130" y="274" width="170" height="18" rx="4" fill="#22C55E"/>
  <path d="M590 210H770" stroke="#38BDF8" stroke-width="8" stroke-linecap="round"/>
  <path d="M740 176L774 210L740 244" stroke="#38BDF8" stroke-width="8" stroke-linecap="round" stroke-linejoin="round"/>
  <rect x="850" y="80" width="660" height="260" rx="14" fill="#101826" stroke="#334155" stroke-width="2"/>
  <circle cx="920" cy="148" r="22" fill="#22C55E"/>
  <circle cx="990" cy="148" r="22" fill="#38BDF8"/>
  <circle cx="1060" cy="148" r="22" fill="#F59E0B"/>
  <rect x="910" y="210" width="500" height="18" rx="4" fill="#CBD5E1"/>
  <rect x="910" y="252" width="390" height="18" rx="4" fill="#64748B"/>
  <text x="90" y="382" fill="#E5E7EB" font-family="Inter, ui-sans-serif, system-ui, -apple-system, BlinkMacSystemFont, Segoe UI, sans-serif" font-size="38" font-weight="700">MMDBpatch</text>
  <text x="350" y="382" fill="#94A3B8" font-family="Inter, ui-sans-serif, system-ui, -apple-system, BlinkMacSystemFont, Segoe UI, sans-serif" font-size="28">declarative overlays for MaxMind DB</text>
  <defs>
    <pattern id="grid" width="40" height="40" patternUnits="userSpaceOnUse">
      <path d="M40 0H0V40" stroke="#94A3B8" stroke-width="1"/>
    </pattern>
  </defs>
</svg>
